<mxfile host="Electron" agent="Mozilla/5.0 (Windows NT 10.0; Win64; x64) AppleWebKit/537.36 (KHTML, like Gecko) draw.io/26.0.16 Chrome/132.0.6834.196 Electron/34.2.0 Safari/537.36" version="26.0.16" pages="2">
  <diagram name="Page-1" id="1tmZCJkHmMc_XACLkczo">
    <mxGraphModel dx="2453" dy="1431" grid="1" gridSize="10" guides="1" tooltips="1" connect="1" arrows="1" fold="1" page="1" pageScale="1" pageWidth="1169" pageHeight="827" math="0" shadow="0">
      <root>
        <mxCell id="0" />
        <mxCell id="1" parent="0" />
        <mxCell id="pCCa0IhE1qolvaZ7Rezn-15" style="edgeStyle=orthogonalEdgeStyle;rounded=0;orthogonalLoop=1;jettySize=auto;html=1;strokeColor=light-dark(#4BFF00,#FFFFFF);strokeWidth=6;align=center;verticalAlign=middle;fontFamily=Helvetica;fontSize=11;fontColor=default;labelBackgroundColor=default;startFill=0;endArrow=blockThin;fillColor=#48E8FF;endFill=1;" edge="1" parent="1" source="pCCa0IhE1qolvaZ7Rezn-2">
          <mxGeometry relative="1" as="geometry">
            <mxPoint x="630" y="471" as="targetPoint" />
            <Array as="points">
              <mxPoint x="790" y="471" />
            </Array>
          </mxGeometry>
        </mxCell>
        <mxCell id="pCCa0IhE1qolvaZ7Rezn-2" value="" style="shape=image;verticalLabelPosition=bottom;labelBackgroundColor=default;verticalAlign=top;aspect=fixed;imageAspect=0;image=data:image/png,iVBORw0KGgoAAAANSUhEUgAAAOEAAADhCAMAAAAJbSJIAAABX1BMVEVpfJb///8/S1prf5lYaH1tgJtqfZhcWleborEeJCtleZQAAACBjqKjoqBaa4FPYHjAwMDGxsYjKjJ8fHyytb8A/wBEPWEApwAA4QCOjo5aYIHLy8s5SFpgX19CRF5CQF8AiABKWW+goKBzc3NoZWEAXgBufZ0WHie5uLhidIxZZYAIFiQoADk7PkJcYGcwPlHc3NwvLy8jEzIALgAASAAkBTQAEB4+Pj51dXUAAAoAuAA1PktIS08pNkYbKz6ura0AABchHxwQExeSkpG6sbdmiKu2uMGOjJd8g5Wjl6KHkqmDnb1nh6+xpaaeoa2vprpmeJ2fncJ+na9ubJFvm8OBmredr8OIi6mXpLuElKOOr9DK0t+arbZykayFf5AhHS+WhpPHtqt0na+FfqO1vM+auNZ7pMudtLiCkLKjrM7BucOAco92iK+dv9OJnbK5xs6hsLC709OOfY+zvNnVyMEGgY8qAAAS4UlEQVR4nO2di3+ayNrHOSFDyEgsBHsxxN3VtES7l27OZZueJOtuK4IYqbXxWsnZbU03Jycl+549///nnRnkYqIENbHB9fkkOA4/Br7OMM8AMwP1l3k36nMfwK3bgjD6tiCMvi0Io28LwujbgjD6tiCMvi0Io29/RsLkykoqtRJ1S61kRxKuAHiwB5hIG0hvpzOjCeFSDlARNwb8mB9JmDrIMUQFomsIMf7z9yMJV+0cBKurq+vYVol5IX84pGA99nLKFPyRsdh1AoAIY6MJ1x1CAO5tbm6m7Z8ljoLQDkIUjNvBsIJYetoUfIL19WsEq6EJ07H82lpyk2T6Fgp+S9aAfRR8HEdFObwgtgSmTMETEMJAQVjC9XvPMzsSLyTTgIo/Tq0JvPRtjqJy+6+2UPBxHCUeWhBbyk2ZgieA6+vQJxClK4KwhNtJaUfMCGTrn/LPdyWeX3sGwLN8TMzyvPQCpEMLXsXSP0yXgk+weXCw6Qleba3tXhashyT8WuLzK2IeJfR1OslvvUqhrbfi8S0+Ka6QJMcQxH6YNgWf4MULIpBsQXZf2rokCFvTfI32sRZ7hZZfb64JUiq5JQji8rIoCLs7efxThRdIsVh+uhT8glgMCZK49BKBtC8mHcFOngjC5yGfFWMSL/0Qx6UeFYzsd7ncd1khI+5Iwlb8h/CC2MG0KfgE29vfZXlceiVbgLW2QEiKu0jwImxd+hiVg61kCp3Q4AUuEuJK/hlNP8M/VSaJzoF4GAGf/XlLehxL/zRxCpcF+DxENUp+ZTf7k70LXDhtgbTD7+dDn4eruRQvSI9fxVClDL7NClIy8xNahdpDqLjYZT2MQPg+FsshbzF5CpcFyFsggZAXd64K8rv5n8bwh/EtUUzGcsQFf4eCP98jfnVJFLe2SaMulEB8mcMef4oULgmwP0QCcX9viGD/4F54QtTYwkZaROsv3ODqNgq9tGNDCnCrbboU/ALcasOC2Oowwer6ta227f6VRfiG7p0zKphwaZm+4WuZz2Do/PzLKMIVZikOaIaJ9h+Ijb4+XGHA3kF8Odq29DK+FkBIgdwSsc2lEbY5ev3IbW7MNq/ZCV65DO4FElIUjYzhWPQJ6b7h+x/9EGQhDlJ4Pc04AgoLSBzFUK6Yhm4KKN4N0pAZEst4QcoVMP4UIMOwHIX+oLcLT4qPhhwBw1xHSIxjlV+UAux/+1jStX48V+Q4VBvBhKKivTuCo1IL7TiBvpZLJExMOfnVEaB4N3jYU/thplNxY01Wc4JHkiMAXgqww6uQ5dDfUaHs7AJ2Cu5WhxVIjoAKT1hlndTfvzHshGBCKAoJQAh/geWicyTvX6PjI+nLbRK2D/o04R6f3HaDissCWqobe+Idq1/g/gSQ1mmbsK7WnF1AS+ecrdDhjkd4eKZ6hB/cfXIcBwiq0qsoNjek4Ps3Bc4lxGEUmztac3NAUYFDCPSyk0WKelJxBW4eAl0pak5sxxPgQkMIO4WavQu0k4/e71I1xiSEyJxvkOMY+wtsJwg3SgutJnGo3AKitdNHseSj06tYOYbr+9e+tv/FzRffLgYE1DAB+ieE0HdocGCrMQm9TTmW59l+RD9x6JQ/XG75BBiII19qb7uW74y6EbMJA9ZPSAjpYrEogIFDhUWHkGOFBEeqHDeOxHeKJSv3USrdPCEcbcXwhDTnN9BmATfagtbdrCG8dmK02T9xOELAsmzrjO1lG7zBti4qjULjLMGyF2xPMljHcHwiwTbenbWkMy/6Fo3DZ3mAUeEJcUKocjot1Vnk+E/Vulpna/+td5sW5+0DkHj1fdPq6lrgnm/K/CUW9us06vKakIQUdjDVRqludM70i+anQt0471q9guU70Q9R/K+HRq2pd/WA8/8aYzgKaDQNdA39oSCDzhCACr7OaQFbVX87Nc7bvzV1rXxRKl9UfIjhCSHHWCXFQC4aOWbNNJiaRpn1hLdfEg84hVUV1piYUGlxlqqznddGi1XpjvGh1vv1tNVI+JoAQ+ywaLReW72STllv27W3/h84PCGhtP0QHAy6ax0PMhg9nh0aKAtOM7W3VjcHQa1poAJxysrtaiPA08iW3m2W87r171+PUB72JsvDGdlRUVWOa7iwoWOlreO60QQnFZnrnAX5Uvs0hO6Hb9WdIyT5D52ag4TtqGvLBewXn0vKu0c4oXFllasXDbnV4/89cMrOCyHkai2jfGbILEfXVf/tpfkhbHxgu/8xW4YOOvw85iFFAwbQ6FpLoxlzwBvPDeFIWxBG3/7shPOAGEgYT88BIngRRLg0B09mQGxBGHW7hhDQkbdgwvVbf3w0Awsk3Av19DAdTjaZxffS022/ek0pdR+mAoBKbH9JPtyHrPSyT3bjf2BpmbbDuacbTyFN5zY2nqLC93RjI+csIVqTcwQDMnSo6yFrGnrzwYM0Yy+p3BcPvlx2XSWzfJsVEr3U3xP9xVcPnzxlwF8fPvwboMDfHj78K7CXzNMnD7/6grYFYECGO1aGJJT//ujRP4C9ZDa+evTPL91VsyJ88Oj+ww0GfHP//hOZkp/cv/8NsJfMxsP7jx7QtgAMyMYhvJrirAm//Oejr9Ch/+PRo7/Lw35xWwAGZGMQDikVMyZklr988EWOYtIPHmzSw84aWzAoG4OQWd7YiPeXFMQnOOWtmgkhecjvfaAl4yz7H/aaQdm1hJ7HB6Qa9S/dNbfaMAC4T8802wcThvP4e7faMFjfm277l9Hx+PcmTCCsx3f+qCsxM/L4HMvo5ACARpYcjQUmR6ElBQBecGgN/gBYb3KAY0ivrzGvLapt+7mMZzOqaTjWfK3iXdcNvPcy6fkByuQhDNM6Rh+H737BX/q9BcoJjTzHDyJMvfAfOnkcAOu9hMFgTI9xZoS1D+TXJT1VYJk8wAONEvnyDoMy5xn8xWoSGa3DawlXgB8QpaJRcr1XxISferw6c8LDInm0DEjnhI8F8qWcIY9ilGO8SOAl7MvOtXH6YmBCk2XbDKW0WA1S1S7r9cqaFWFi7Of84xFSSq+oQllvczqDaptyyR2ZOCuPP0FnDWocwj6b8oeAzuPqp3de15jZEJJeVaiepMZ9vDxGKSXl0yz/zuGnyq2LWRNO2qsqfB6WL4oGJXfeCRVU0zSK+RmXUtg5K1nUR6k0bgLhCTkaewj6/HdcxeRg45fZ5iHlPKQfN4HQhAyQGyrKyXfFPMpDi/U6lMyqppnQwudhq2fouEmEe+4w5mnDmHEeTmrhvUUOuQutatUM5BXlTo8/dpOYE0JYZ1kVQrPBksbh7Fttk1r4PARHFcAM69cyL4TIT7yrDE9iTgixx28PT2JOCPFVxfA+zPNC6Pj6IUnMCWHf1w9LYk4IGezr55qQGtktdn4IRyaxIJzK/qyE/gsp6P+7eipFkxC0WLXeUDna1OApS513NYUs5dbV/u6RJIRlQwctvatrZRWPXzRbJXuJ4q/47GgSNo6h0jhTbUJdk1nNXqL4OSml5QTLtbRqi00cU4itU1TtZTkxJ6WUYkxdoymIGiEQDz8GusYA/GAGolbJfBCW89Rpr1eCptwoZpuNXkED3KFQOF+rdn6xLo25iiShbLFaR4VQ5lDhPO2W0Mkna4dF4zwDqw31kjiShIfoYhwTmriCKTcqqKia1GGBRYSwc/lEjCKh3P1P1VBQKeVoptWrVDu9gtyGimqd9vjj8lzkoTMyCtDOkC5Fuzq00jm8KBKOZQvCMEksCKeyBeG1tiAMk8SCcCrrEwKdY3DPg1t8QhqQxCwIzRbL4o4EdWPcfUWEEJrHcldDbbPOWdDEA8MsIoS4Nw+6UlJhpzivhOTumtJm5vc8tG2SySgiRDjh9C7RIaTHn6GnPV7Pvc9NyBlHkoq747UqeFnO4qXeKJAueo0SWtR7pcGOe2P2TfzshP0etPZsdtDUaVT30HV80wIqCRVXRJduJY7Zv3S0zbgXNGUTdgq4Y538iTx5N0lXYd+cfcRCEIabvHTmPdlpu6M66ckONNKTnQZOF3bftrAI8eEFEYbs739nRyPYW2wG9GQPOQPp3R5RsnQQWEpDjbuZ1aiggSFJw0YpDR25dO0MrdfbrDw+HhWKqo74xgaKGTbSzBYMyKgo1aUTjiGNEuFkY0ijRDjZGNIIEU44hjRCHp/B1SPeHf4YPnreFgzIbtXjxyezkR5/UrsBjz/CXsYmsin9+1Wb3uOPctXrE2XhdvidQgbak5yjJihDoT+GzFgO8TBLtK4/efkNePwRBlYneesAWA39LrvDol6AnQqEh5XDXuakV+pU8JA9pZepG+VC3ZlJ8vZmwhrjWCfbSmFllqmrZUNmQT3Dve22VEuvs6xsdUqK0XUmRY8w4ZF0zConFZPDj7wLJxfHJygPOc7sGS2jI5TnIA/JJLHObLGjpxmOMuFl4wZuQ7mDlsISAlkeb98zJ4Qsy5GXNXAGChTHJQSxJ0/+hZr0FGor0IAL0Uz7DISv8fsQyhX8SohEdlxCuxVPmce1VtPolEI8PPgMhP/3X0RYx++9KBtj56FHaL3JdAJnnp7qWKfOw94JzsOPhbOxS+m/vvlmD1DlAquflz7eScLB2f/d2PA1DXk9lNMH6daO9cbqUm+Y8hx5C+qqM6TmjHCo3V3C6Sav9yz8uCd6TN4pCZVesdkoapco++XP/vCmmr9UMAcsLKFzZ7K/n1sn9Lom+Ott84/MScE8rv6m613q8KJgfWhcFP/4n9X8JOBO0VMR2ncmFVaDkJYbhnY95JR5aLZYvYX2cyL4+qabrXZLNY8Pi83uMay95bpNrs20SpYutxVrxHwSY3l85v2b7offadky6s32dYhT5iGDuwi1DGhy7qvAUMa+Sfzx68czltMNdOF7UUGXSCzN5ToFmbUn4RlmYQnxnUn66Az9eBwttw+71/r86QgnmKplhAXea/MR2ncmzabVbKP2t2Y2h496vilCWAz/tF4IXJvgwtaltD27HZ78Y6xjnZAwEbq/BScEvfIJtVHvpj/EhP5oODyIwzbh8NTuNKFiMN723uvzKMWdcYRiSDcFTFhXTa9e8IIMuZK6q4RVg3ZH2sG67p72VY+QLmdsQrpcMo+daIV15yRRPlXuLmGxytJWf3AIDSyXEMjuDRgASEcMRCg3SuVSv3oAdfdNQUA7N+4uIStzoG4w9kt9dVRK++/3NTWuH6IVtW6gT47lQNkoG5wjUDRHwFl3tpTS4OXq9ur29qpjXsgftMNogZT+aG/99h53q3f1J95q6eVNvdM59zJ9BwnB0vLNXSSCdNCzpyDC0ZcrvmOd4IBWAdiL31QOEgt4fjiSENXjpuG9M/emCVfB0kv7Ren269VXcXDbe336+uVgoCAW/E7nUYS5j4Wa887c2yCMg/iuKIppkgl7+yi4RILppChu2Vk8XLD8c/KSYH2S8xA0CpZV896Ze/OEy/GtlCQIyTRNgYMdMS8I+R8BRadfPZYEPoUuxakRglgmKQ0KgglDN3+H2HR5+FzcyQu8IN6jlvL5WBIF156Be+LzVJbnpeeoNhoh+D4mXhIEllIQ/hLmqnHTEeZFMcMLu/FlUcjuiogg+13u3u4rcTfLCwRguEDaFXeFAUEgIWdMfuHJsttTEP6QFfI7Ijrq/fguWqZ2JJxd+1khKa4IfP4AHOSHC3hejEkDgudBpXTgRceeQRoADc92C/Cw/+FHCrkpCXkhlcoINoCQSm4JNoCwi8oeARglSGZ2JL9gIsK6cVqpap3/NYZMtOHYdITx5wK/9hyVOVwI0YkVE7OkEAp8RtzNk0I4SiChescvCC6lwwmpozxq4dO14/cBDmNaQonnt15tkYoE5VFSTOVxRYKC+ZVkDAOMEvCDguTYhCim2tWb7apqyu/l/ot/b5xwOZ7iBel5DDuDH5ErkMTYM+wMkgJyCzH81oKwgnuB3uIqoQnagDtkVQq/FddQWK5lWKXysJycMg9BfEsUd5aJ615Cnnt/z/b4oufxQwrGI4QdtqAYls5RilFrso03XZ1rHZ9cnsZgesKBVts2Dq4GtNoCBbHlcIT2YxJYe210zvBLqTuFWrP98az+rtQplMmIOThYrU5FSN9kyztcHiotDd/2UYzTXl5TeoXzBHfa6BmnRovtnDXwfQOFBa1j36FORTjBhiMt8K6+R2ieGnV8I90wdS4H62xHUiGNnEY7B9EqXN/Um91Tw5eLkSTEjwdM3fqjUmetpoU7yMmooOq9ykmlUziSWgMvi56CcC9+k32OA68PL5dSKLeVlkFB0yAPoeoqnsQfBXH2KgYYuNaYnHCW1/g6i/tqEsP9Ne0AdL9BdxX0K2zj2K8BM76BbbzV0vYk2w6z+HbQfZqkmFmZwlKTb5WabNsR6WVHEs6bLQijbwvC6NuCMPq2IIy+LQijbwvC6NuCMPq2IIy+LQijbwvC6NuCMPq2IIy+LQijbwvC6NuCMPo2/4T/D/r7ceeUbJv0AAAAAElFTkSuQmCC;" vertex="1" parent="1">
          <mxGeometry x="722.5" y="149" width="265" height="265" as="geometry" />
        </mxCell>
        <mxCell id="pCCa0IhE1qolvaZ7Rezn-3" value="&lt;h1&gt;PLC&lt;/h1&gt;" style="text;html=1;align=center;verticalAlign=middle;resizable=0;points=[];autosize=1;strokeColor=none;fillColor=none;" vertex="1" parent="1">
          <mxGeometry x="820" y="90" width="70" height="70" as="geometry" />
        </mxCell>
        <mxCell id="pCCa0IhE1qolvaZ7Rezn-14" style="edgeStyle=orthogonalEdgeStyle;rounded=0;orthogonalLoop=1;jettySize=auto;html=1;strokeColor=light-dark(#4BFF00,#FFFFFF);strokeWidth=6;align=center;verticalAlign=middle;fontFamily=Helvetica;fontSize=11;fontColor=default;labelBackgroundColor=default;startFill=0;endArrow=blockThin;fillColor=#48E8FF;exitX=0.999;exitY=0.544;exitDx=0;exitDy=0;exitPerimeter=0;endFill=1;" edge="1" parent="1" source="pCCa0IhE1qolvaZ7Rezn-5">
          <mxGeometry relative="1" as="geometry">
            <mxPoint x="400" y="272.03999999999996" as="sourcePoint" />
            <mxPoint x="573.04" y="374" as="targetPoint" />
            <Array as="points">
              <mxPoint x="367" y="272" />
              <mxPoint x="573" y="272" />
            </Array>
          </mxGeometry>
        </mxCell>
        <mxCell id="pCCa0IhE1qolvaZ7Rezn-5" value="" style="shape=image;verticalLabelPosition=bottom;labelBackgroundColor=default;verticalAlign=top;aspect=fixed;imageAspect=0;image=data:image/jpeg,/9j/4AAQSkZJRgABAQAAAQABAAD/2wCEAAkGBw8NDxAPDw8PDw0NDQ8NDQ0NDQ8NDQ0NFREWFhURFRUYHSggGBolHRUVIT0hJSkrLi4uFx8zODMtOCgtLisBCgoKDg0OFRAPGisdFxkrLS0rLS4rLTArLSstKy8rNS0uKys3LS0rLi4rKysrNy0tNSstKystKy0rLSstKy0rLf/AABEIAMwA9wMBIgACEQEDEQH/xAAbAAABBQEBAAAAAAAAAAAAAAAEAAECAwUGB//EAEUQAAECAwELBwoFBAIDAQAAAAEAAgMEEQUGEhUhMVJTcpOx0iIjQXGRktETFCQyMzRRVHOBFkJ0ssEHQ2GDguGio/CU/8QAGQEBAQEBAQEAAAAAAAAAAAAAAAECBAMF/8QAKREBAAECAwcFAQEBAAAAAAAAAAECEQMEMhITMVFhcaEUISIzgbGRUv/aAAwDAQACEQMRAD8A3LOlYdoAx5sPixIhLiTFdQA/lA6APgFCfsSz2ZJZ9fj5Yoy5Jvo7dUKNuDku1XbltGM2z5L5eJtnK0WdI/LxNs5c/Z8g+O2J5NsM+bw4T3h8aZMV4e2pcGtJqB0nEBUVK0W3OzBc1gbLGI90w1rPOJypMF72Ox5MboZAx46jIjwnMUXt7/5+NEWdI/LxNs5SFnSPy8TbuWY+56YYAXtl2kugMvTMThcIkb1WGhIBBqD8CFCcsWPAZFe+HA5lgiOa2PNve6GXvYIgAPqG8rfGgo5uPHREnM0Rz/xsCzpH5eJt3KQs6Q+XibdyAhWXBIBvXY2g+2jfDWU8EwM122jcSPcbg6R+XibdycWdIfLxNu5B4JgZrttG4k+CYGa7bRuJFGYOkPl4u3cnwdIfLxdu5B4JgZrttG4ksEwM122jcSAzB0h8vF27k+DpD5eLt3IPBMDNdto3ElgmBmu20biQF4NkPl4u3clg2Q+Xi7dyEwTAzXbaNxJsEwM122jcSAzB0h8vF27k2DpH5eLt3ITBMDNdto3EmwTAzXbaNxIC8HSPy8XbuUTZ0j8vF27kLgmBmu20biTYKgZrttG4kBRs6R+XibdyibOkfl4m3chsFQM122jcSpmbOgsY5whvdeit62NGJP8A5IDTZ0joIm3cmNnyOgibdyxT5uLysNxv3saXMmYr2NvvK8qtcYHk/wDBx/4UXOlsfNvoI5hV8vE9QAExfW9UXw7Qg2TZ8loIm2coGz5LQRNs5ZUSFCZ60F3rOY0MmoziXCmLHTKSFKNKQ2Mvnwr1xeGUM1FvMfTffD7INE2fJaCJtnKt1nyWgibYrIc6ByqQYlWwvKXvl4gJcACYfrZaOaf+SV7Ac4Naw0Jyujxm4r2GcmPHzlKf4Kg0YlnyegftisK0JeCK3rHD/mSj3ScIsD2tc01aRzsQ0o8D4oS0BlQZ9k27M2ZHbHl4r20vmuhF5MKIC0ijm5DTEf8AFEyAnhi+6ZRXstyQ9HbqjcqrdHJdqncr7kh6O3VG5VW96rtV25aRylnybvJ3zI8aF5aFDEQQnBocA2gGTr7Si/NoppWbmuS90RvO5HucXFwxZSXE9ZSs72ML6bdyKCPGcCiZvYO2WigECcmqEtJ53KWmoOTKKlGQ7n48SEG+eR/JPhNh3jopp5IZGerkx5MiYLpJH2UPUbuVc2ZopopiaYZrLHeABfMxADK7o+ymLIiZzO13gjbSn2SsPyjw8tvmspDALiT1kBZn4tl9FMdyFxq7Lzpx8aY9l+CImcztd4KWCImcztd4If8AF0vopnuQuNL8Yy2imdnC41dlre5jl4E4IiZzO13gnFkRM5na7wQv4yltFM7OFxpG7SVH9qZ2cLjTZTfZjl4FYHiZzO13glgeJnM7XeCF/G0ropnZwuNN+OJXRzOzhcabMm+zHLwLwREzmdrvBLA8TOZ2u8EH+OJTRzOzhcab8cymjmdnC402ZN7mOXgYbIiZzO13gmwREzmdrvBB/jmU0czs4XGl+OJTRzOzhcabJvcxy8C8ERM5na7wUcERM5na7wQhu4lNHM7OFxpfjeV0czs4XGmyu9zHLwKNkxM5na7wVcWxXuBaSyh+DntP2IFQhzdtK6OZ2cLjUTdtK6OZ2cLjU2Te4/Lwc3NDpDDWtaviOJqHg1Jy+0f29Sh+GW4+TCILbyhviA29a2gBGLE1o+yRu2ldHM7OHxqJu1ldHM7OHxpsrvcfkm+56+FDeEcrK6J+YUONVRrJ8iypIIDw713vdf5KknKt2Smmx4TIrK3kVge0OFHAH4j4oe1/ZHWbvUsmHmMSa4pnm5mJJQjjLBUuc4ux3xcQQceXITiUfNGBxcAWuLnOJa9zaude1Joem9HYtYxZfRv73/agYkvo397/ALUdu8n/AJnwy5qTEKEHD1YhBAv3OpR4riOTL0LHtAZV0ttFpgwy0ENx0Bxkctq5y0OlSVw6pqpvPX+udnhi+6SlPZPuko9HslyXu7dUblRb3qu1XbkRcl7u3VG5D2/6rtV25aRz9nexh/TbuRQQtnexh/TbuRQREwukkfZQ9Ru5c0F0sj7KHqN3Kw487pjuzbrfdh9dm5y5Gi6+6z3cfXZucuTovajgzltCshQKtKrctvdWVW4qblWUESolOVEoGKipFRQMUydMUCThMkCopyoFTUCgiUzk5USg9Jua9ylvoM3K21/ZHWbvVVzPuUt9Bm5W2t7I6zd68JcFH2x3Z0SDBhcmJfufQFwbiDf8Kovl8yJ3h4q6O2HGN/5QMcQL5rx0gUxFUmTZp4f/AN91HZExb5TN/wBDWwykNpa4uhGl5UAFvLFQVz0/0roLXiN8m2Gw3zWEEu+Li8ZFgT/SpL2wr7Pu5+eyfdOlPZPuksvV7Hcl7u3VG5D2/wCq7VduRFyXu7dUbkNb/qu1XbltHP2d7GH9Nu5FBC2d7GH9Nu5FBQTC6WR9lD1G7lzIXSyPsoeo3crDizumO4C6r3cfXZucuVIXU3VGkuPrM3OXJuiL1oZy2gzgqHqbnql7lt0IuKrJUiVWVQiVElIqKIRKVUyZA9VEpFMopVT1UUkEqqJKVVEoGJTEpFRJQemXM+5S30Gblba/sjrN3qm5n3KW+gzcrbXPNHWbvXhLgo+2O4CPEhwDeCE17mgXzn46mlVSZ5uhhdn/AErHxoMXG8PbEoA4sxh1OlQMOX+MbujwUdkRTb5RN/0BaccPZiY1lCPVFK8oLDn+lblpiHec2XHGL6+pnClFhz/SpLootb29mFPZB1pJT2T7pllt7Fcn7u3VG5D2/wCq7VduV9yfu7dUbkNb/qu1XbltlgWd7GH9Nu5FBCWd7GH9Nu5FBRUwumkPZQ9Ru5cuF08geah6jdysOLO6Y7s2680lh9aHucuML12F2R9F/wB0P+VxF8vWjgzltH6tLlBxUC5RLlt0JEqJKa+USUDkqJKYlMgeqaqZMSgVUqpiU1UD1SKjVKqBVTEpiU1UCJUSUlElB6fcz7lLfQZuVtrY4RHxc3eqbmPcZX9OzcrLY9kdZu9eEuCj7Y7gpubdBcYcMNa1oGOlS7FlQ5tSNnDuhGRYMV7L13kSaAB9eWAD8aIeHZ8Rjg6sM0x0c40KjqonC2fla/8AQlsEPhMiUDXPNHUxA0eMa56e6V0FueUvQXlnQGhmQcpq56e6VJdGFphhzuT7pk89kHWmWXq9guU93bqjchrf9V2q7ciLlPd26oQ1vnku1XblpGBZ3sYf027kUEHZ3sYf027kUEEwV00h7KHqN3LmAV00geah6jdysOLOaY7su7Q+if7of8rhb5dxdsfRP90P+VwQcvWjgmW0fq2+USVCqVVt7pVTVUapqoHJTVUU6odMU5cokqBqpqpVUUEgUqqNU1UDkqJKRKiSopyVElMSmJRHqNzHuMr+nZuVlseyOs3eqbmD6DK/p2blbbB5o6zd68ZcFH2x3Y5k4mjd2K+dlnubCoxxvYQBoMh+CGM1E0j+8VEzUTSP7xWX0JpxJmJ9vbuGn4LmM5TS2pbSoy8oLInula0/Fc5hvnF1C2lSTTlBZE90qPWL29+LDncg60kp3IOtJRp67cofR26oQ1vHku1XbkRcqfR26oQtvHku1XblpGDZx5mH9Nu5FAoOzzzUP6bdyKBQTBXTSB5qHqN3LmAV0sgeah6jdysOPOaYZd2x9E/3Q/5XA1Xd3bn0P/dD/lcCCvajgzl9CdU1VGqaq290yUwUKpXyCyqa+VdUqqCRKiSmJTVQSqmqmqlVA6aqiU1UU5KYlMSokoHJUXFIlRJUR6lcwfQZX9PD3K22PZHWbvVNzHuMr+nZuVtseyOs3evGXDR9sd2CVElIqJWX1VM36h62/uCzJ7pWlN+oetv7gsye6VBiTuQdadNO5B1pKK9buWPo7dUIW3jyXartyvuWPo7dUIa3TyXap3LSMKzzzUP6bdyJBQlnnmof027kSCgsBXTSB5qHqN3LlwV0sgeah6jdysOPOaYZV3B9D/3Q/wCVwAK727g+h/7oX8rgAV7UcGcvoSJTVTVTErT3OSlVRJTVQSqmqo1SqgkSmqmSQSqmqo1SJQSqmqo3yYlA5KimTIESmJSKiUHqdzB9Blf07Nyttg80dZu9U3MH0GV/Ts3Ky2DzR1m714S4aPtjuwiokpEqJKw+qqmjyD1t/cFmTvStGa9Q9bf3BZk70oMadyfdJNOZB1pKK9YuXPo7dUIa3TyXap3K65c8w3VCGtw8l2qdy0jDs881D+m3ciQUJIHmof027kSCoLAV0sgeah6jdy5gFdLInmoeo3ctQ5M5phkXdPAkiSaARoVScgxkLz3zmHnt7wXsNU63TVZzYeNsRazx3zlme3vBLzmHnt7wXsacLW8b9T08vGjMw89veCiZqHnt7wXtCdTbPVdPLxXzqHnt7wT+cw89veC9pSTbPVdPLxXzqHnt7wS86h57e8F7Ukm2eq6eXihmoee3vBLzpme3vBe1JJtnqunl4n5yzPb3gl5yzPb2he1qKbZ6rp5eK+csz294JjMMz294L2opim2ep6eXivnDM9vaExjszm9oXtJUSm2vqenlmXMH0GV/Tw9yutf2R1m70YSgbXPNHWbvWJeWHN8SJ6sElRKRKiSsPqqpo8g9bf3BZs70rRmjyD1t/cFmThyoMecyfdJNOZPukor1S5g8w3VCHtw8l2qdytuZPMN1Qh7bPJdqnctIxJA81D1G7kSChJA81D1G7kSCoLAV0kieah6jdy5gFdLInmoeo3crDkzmmBYKRdQV6BjPUoVTRTyXap3LT57MjXUycNt++JEawCGS4ysyAL8EsryMVQCfsjbJtWBOQzFl3l8MPMMuLHw+UACRRwB6QvFpi1IsYHyjq37ILaY6NbCbRjW48QxntXpX9KoYdIxMeSceMX04ZWYl3YmUiI+PF1tUr5O9lFU84j1HctOSvDmibSy33TyjWl5fEDGMZEcTKzPJY/1XEXmKqLsm14E6wxJd5exrzDcSx8OjwASKOAORwXjES2IsVjw8McYsKDCvyH38OFDAvYbDfYmktBIIIJAPQF6L/SZl9JR64r2ecMX0IJWYl14mUiI+PF2FUqp4jKKsFacleHVRNpZL7ppQMc8viXjGMiOd5tMclj/VceRkKKsm14E6x0SXeXsa8w3EsfDo+gNKOAORwXjb7ZjObEa4tcIkGHL1cHEw4LA0BjMdADeg4wcYqKFeg/0nYHScxX8s4Ri+jDWYl115SIj48XYVTVUojAFUDjWnJXh1Ue0siJdRJtBJfEo2EIzj5rMkNhEtAeeRiBLm9oRNlWxAnWOfLvv2MfeOJY+HR1AaUcAchC8hi21MERIZeDDiQ2QCxzGuAhw2hrL0mpaQB0HK4ru/6UQw6VmDXJN0/wDUxZiXXXlI2fjxdeSmJU4jKKklacteHVRxOSgLXPNHWbvRhKBtc80dZu9RcLXT3YRKiSkSokrL6yuaPIPW39wWbOHKtCaPJPW39wWbOHKgyJw4vukozmT7pKK9PuadzDdUKi2jyXap3KVzbuYbqhU2y7ku1TuWkY8geah6jdyJBQkieah6jdyJBUFgK6SRPNQ9Ru5cwCukkTzUPUbuVhyZvTAsFSGNVAqTTjHWtOAZEuXs0ZJCTHVKwfBTlpGDLNLIEKHBYXXxZChthtLqAVoOmgHYtKKUFFK84fakPGKpqpxSqQVuHzs1qgZEuWs0ZJCTHVKwfBSlpGBLNLIEGFBY51+5sGG2G0uoBfEDpoAPstOMUDGKxD6MhoxVFVZGKoJW4fOzeqBkW5ezfkJP/wDLC8EpeQgSzS2BBhQWOdfObBhthtc6gFSAMtAOxakUoGMViH0JCxihyVbGKHJW4cGb4wLi3MWd8hJ1OM+iwvBKXkIEs0tgQYUFrnXzmwYbYbXOpSpAGM0AWnFO5BRisQ7wkYoclWxihyVuHDmuMHJQNrnmjrN3oslA2ueaOs3ejxwtdPdhkqJKRKiSsvqqpo8k9bf3BZs4cqPmTyT1t/cFnThyoMqcOL7pKM2cX3SUV6Nc4/mW9QVdsOxO6juVdzr+Zb1BRtZ+J3UdyqM2RPNQ9Ru5EgoKRPNs1G7kSHILgUXDtCK0BodiaKDktOJAgp6olVMVcYu0BacbOHdb4JxakbOHdb4IAFPVVndUcoa5uhmj/cGzh+CgbcmD+cdxngsuqeqjbQNrRzleO43wTYUjZw7rfBA1SqqzNFM8Ya5uhmj/AHBs4fgqzbkwfzjuM8FmVSqo00Da0c5XjuN8FHCkbOHdb4IGqVVWZopq4w1nXQzR/uDZw/BVutyYP5x3GeCzapqqND3WtHOV47jPBRNpxs4d1vggqpqqszRTVxi7VN0M0f7g2cPwVbrbmD+cdxngs2qVVGhzrWjH847jfBQwnGzh3W+CDqokqszRTPGBptOLnDut8FVHnYjxeuNRiOQBDEqJKJGHRHCIIlQJSJUCVG1c0eSetv7gs6bOVHTLuSetv7gs2bdlQZk2cX3SUJs4vukorurn4nNDqT2k6oI+IIXI3ZTUSz7QnJSBEcIMCYcyGHGrgygIFRTJWnUFzkS2Jh2WI7tKXR3kBj2tDQ5tGgAVYej/AJK4eUzmdx3EvORaUbSO7SpC0o2kd2pcejjymczZu4lIeUzmbN3EvNsJx9I7tT4Tj6R3arcelARM5mzdxJ6RM5mzdxLzXCkfSO7UsKR9I7tS6vS6RM5mzdxJ6RM5mzdxLzPCsfSO7UsKx9I7tS6PTKRM5mzdxJ6RM5mzdxLzPCsfSO7UsKx9I7tS49MpEzmbN3ElSJnM2buJeZ4Vj6R3aUsKx9I7tKXHplImczZu4kqRM5mzdxLzPCsfSO7SlhWPpHdpS6vS6RM5mzdxJUiZzNm7iXmmFY+kd2psKx9I7tS49MpEzmbN3EmpEzmbN3EvNMKx9I7tSwrH0ju1Lo9KpEzmbN3EmpEzmbN3EvNsKR9I7tSwpH0ju1Lj0ikTOZs3cSYiJnM2buJecYUj6R3amwnH0ju1Lj0YiJnM2buJRIiZzNm7iXneE4+kd2psJx9I7tS6vQyImczZu4lW7ymczuO4lwGEo2kd2qJtKNpHdqXHeRWvIoXNpiyMNcRr8Vnzbsq5LCMbSO7Sm8+iZxPWpcbE0cSS0v6a2ZDtW0oUrMl/kXQ4z3CG4McS1hIx0OKqSg//2Q==;" vertex="1" parent="1">
          <mxGeometry x="120" y="170" width="247" height="204" as="geometry" />
        </mxCell>
        <mxCell id="pCCa0IhE1qolvaZ7Rezn-6" value="" style="fontColor=#0066CC;verticalAlign=top;verticalLabelPosition=bottom;labelPosition=center;align=center;html=1;outlineConnect=0;fillColor=#CCCCCC;strokeColor=#6881B3;gradientColor=none;gradientDirection=north;strokeWidth=2;shape=mxgraph.networks.pc;" vertex="1" parent="1">
          <mxGeometry x="120" y="470" width="260" height="250" as="geometry" />
        </mxCell>
        <mxCell id="pCCa0IhE1qolvaZ7Rezn-8" value="&lt;h1&gt;HMI&lt;/h1&gt;" style="text;html=1;align=center;verticalAlign=middle;resizable=0;points=[];autosize=1;strokeColor=none;fillColor=none;" vertex="1" parent="1">
          <mxGeometry x="195" y="88" width="70" height="70" as="geometry" />
        </mxCell>
        <mxCell id="pCCa0IhE1qolvaZ7Rezn-16" style="edgeStyle=orthogonalEdgeStyle;rounded=0;orthogonalLoop=1;jettySize=auto;html=1;fillColor=#48E8FF;exitX=1;exitY=0.5;exitDx=0;exitDy=0;exitPerimeter=0;strokeColor=light-dark(#4BFF00,#FFFFFF);strokeWidth=6;endArrow=blockThin;startFill=0;align=center;verticalAlign=middle;fontFamily=Helvetica;fontSize=11;fontColor=default;labelBackgroundColor=default;endFill=1;" edge="1" parent="1" source="pCCa0IhE1qolvaZ7Rezn-6">
          <mxGeometry relative="1" as="geometry">
            <mxPoint x="565.0666666666666" y="504" as="targetPoint" />
            <Array as="points">
              <mxPoint x="565" y="595" />
            </Array>
          </mxGeometry>
        </mxCell>
        <mxCell id="pCCa0IhE1qolvaZ7Rezn-9" value="&lt;h1&gt;TIA PORTAL&lt;/h1&gt;" style="text;html=1;align=center;verticalAlign=middle;resizable=0;points=[];autosize=1;strokeColor=none;fillColor=none;" vertex="1" parent="1">
          <mxGeometry x="195" y="540" width="160" height="70" as="geometry" />
        </mxCell>
        <mxCell id="pCCa0IhE1qolvaZ7Rezn-13" value="&lt;h1&gt;Switch&lt;/h1&gt;" style="text;html=1;align=center;verticalAlign=middle;resizable=0;points=[];autosize=1;strokeColor=none;fillColor=none;" vertex="1" parent="1">
          <mxGeometry x="400" y="430" width="100" height="70" as="geometry" />
        </mxCell>
        <mxCell id="pCCa0IhE1qolvaZ7Rezn-18" value="&lt;h2&gt;&lt;font style=&quot;color: light-dark(rgb(0, 0, 0), rgb(237, 237, 237));&quot;&gt;Ethernet&lt;/font&gt;&lt;/h2&gt;" style="text;html=1;align=center;verticalAlign=middle;resizable=0;points=[];autosize=1;strokeColor=none;fillColor=none;fontFamily=Helvetica;fontSize=12;fontColor=default;" vertex="1" parent="1">
          <mxGeometry x="670" y="425" width="100" height="60" as="geometry" />
        </mxCell>
        <mxCell id="pCCa0IhE1qolvaZ7Rezn-19" value="&lt;h2&gt;&lt;font style=&quot;color: light-dark(rgb(0, 0, 0), rgb(237, 237, 237));&quot;&gt;Ethernet&lt;/font&gt;&lt;/h2&gt;" style="text;html=1;align=center;verticalAlign=middle;resizable=0;points=[];autosize=1;strokeColor=none;fillColor=none;" vertex="1" parent="1">
          <mxGeometry x="425" y="225" width="100" height="60" as="geometry" />
        </mxCell>
        <mxCell id="pCCa0IhE1qolvaZ7Rezn-21" value="&lt;h2&gt;&lt;font style=&quot;color: light-dark(rgb(0, 0, 0), rgb(237, 237, 237));&quot;&gt;Ethernet&lt;/font&gt;&lt;/h2&gt;" style="text;html=1;align=center;verticalAlign=middle;resizable=0;points=[];autosize=1;strokeColor=none;fillColor=none;" vertex="1" parent="1">
          <mxGeometry x="415" y="543" width="100" height="60" as="geometry" />
        </mxCell>
        <mxCell id="pCCa0IhE1qolvaZ7Rezn-22" value="" style="image;html=1;image=img/lib/clip_art/networking/Switch_128x128.png" vertex="1" parent="1">
          <mxGeometry x="490" y="374" width="170" height="135" as="geometry" />
        </mxCell>
      </root>
    </mxGraphModel>
  </diagram>
  <diagram id="RduzBhiYDWCDYsTvT1Yf" name="Page-2">
    <mxGraphModel dx="7360" dy="4293" grid="1" gridSize="10" guides="1" tooltips="1" connect="1" arrows="1" fold="1" page="1" pageScale="1" pageWidth="1169" pageHeight="827" math="0" shadow="0">
      <root>
        <mxCell id="0" />
        <mxCell id="1" parent="0" />
      </root>
    </mxGraphModel>
  </diagram>
</mxfile>
